<svg width="53" height="52" viewBox="0 0 53 52" fill="none" xmlns="http://www.w3.org/2000/svg">
<path d="M46.4824 27.4697C46.0148 26.8635 45.5074 26.2571 44.9652 25.653C45.3379 25.2204 45.6931 24.787 46.0273 24.3538C49.482 19.8743 50.4629 15.8106 48.7892 12.9117C47.1155 10.0127 43.1064 8.83045 37.4991 9.58262C36.908 9.66195 36.3046 9.76249 35.6916 9.88193C35.483 9.27205 35.2621 8.68126 35.0283 8.11291C32.8762 2.88123 29.8475 0 26.5001 0C23.1527 0 20.124 2.88123 17.972 8.11291C17.7382 8.68126 17.5173 9.27205 17.3087 9.88193C16.6956 9.76259 16.0922 9.66195 15.5012 9.58262C9.89451 8.83055 5.88482 10.0127 4.21107 12.9117C2.53732 15.8107 3.51821 19.8743 6.97296 24.3538C7.3071 24.787 7.66227 25.2204 8.0351 25.653C7.49276 26.2571 6.98546 26.8634 6.51786 27.4697C3.06311 31.9492 2.08222 36.0128 3.75597 38.9117C5.10076 41.241 7.95264 42.4619 11.9301 42.4619C12.903 42.4619 13.944 42.3887 15.046 42.2409C15.7557 42.1456 16.4831 42.0201 17.2241 41.8672C17.4572 42.5664 17.7063 43.2412 17.972 43.8872C20.124 49.1188 23.1527 52 26.5001 52C29.8475 52 32.8762 49.1188 35.0282 43.8871C35.2939 43.2411 35.543 42.5663 35.7761 41.8671C36.5171 42.02 37.2445 42.1456 37.9542 42.2408C39.0565 42.3886 40.0969 42.4618 41.07 42.4618C45.0471 42.4618 47.8996 41.2408 49.2442 38.9116C50.918 36.0127 49.9371 31.9492 46.4824 27.4697ZM40.6321 12.4034C43.4171 12.4034 45.3856 13.1104 46.1505 14.4351C47.1513 16.1685 46.227 19.1055 43.6146 22.4929C43.3657 22.8157 43.1035 23.1387 42.8305 23.4615C41.3031 22.0084 39.5838 20.5865 37.7132 19.2315C37.4548 16.9751 37.0663 14.8189 36.5583 12.8141C38.0497 12.5389 39.419 12.4034 40.6321 12.4034ZM30.5448 33.3117C29.1752 34.1024 27.8235 34.8117 26.501 35.4424C25.1776 34.8115 23.8256 34.1029 22.4554 33.3117C20.9436 32.4389 19.4968 31.515 18.1319 30.5555C18.0174 29.0981 17.9554 27.5774 17.9554 26C17.9554 24.233 18.0329 22.5368 18.1755 20.9217C19.3926 20.0859 20.6712 19.2791 22.0002 18.5118C23.5277 17.6299 25.0325 16.8505 26.5 16.1673C27.9676 16.8505 29.4724 17.6299 30.9999 18.5118C32.329 19.2791 33.6074 20.0859 34.8245 20.9217C34.9671 22.5368 35.0446 24.233 35.0446 26C35.0446 27.5774 34.9827 29.0981 34.8681 30.5555C33.5033 31.515 32.0566 32.4389 30.5448 33.3117ZM34.4034 34.5317C34.1992 35.8286 33.9516 37.0571 33.6672 38.2084C32.5372 37.8801 31.3597 37.4828 30.1454 37.0147C30.7878 36.6735 31.4294 36.3192 32.0682 35.9504C32.8639 35.4909 33.6426 35.0171 34.4034 34.5317ZM22.8546 37.0146C21.64 37.4828 20.4629 37.8797 19.3327 38.208C19.0484 37.0569 18.8008 35.8285 18.5967 34.5317C19.3575 35.0171 20.1362 35.4909 20.9318 35.9503C21.5706 36.3192 22.2121 36.6735 22.8546 37.0146ZM14.9457 28.1271C13.9809 27.3278 13.0769 26.5135 12.2427 25.6916C13.088 24.8855 13.9989 24.0882 14.9678 23.3065C14.9289 24.1956 14.9085 25.0943 14.9085 26C14.9085 26.7139 14.9214 27.4232 14.9457 28.1271ZM18.681 16.9516C18.8858 15.7376 19.1292 14.5869 19.4049 13.506C20.4875 13.8085 21.6156 14.1758 22.7796 14.6085C22.01 15.0102 21.2415 15.4317 20.4768 15.8732C19.868 16.2246 19.2695 16.5846 18.681 16.9516ZM30.2204 14.6084C31.3844 14.1757 32.5126 13.8083 33.5952 13.5059C33.871 14.5869 34.1143 15.7376 34.3192 16.9516C33.7306 16.5846 33.1321 16.2246 32.5234 15.8732C31.7586 15.4316 30.9902 15.0101 30.2204 14.6084ZM38.0324 23.3065C39.0013 24.0882 39.9121 24.8855 40.7574 25.6916C39.9233 26.5135 39.0193 27.3278 38.0544 28.1271C38.0787 27.4232 38.0916 26.7139 38.0916 26C38.0916 25.0942 38.0713 24.1956 38.0324 23.3065ZM26.5001 3.04688C28.7039 3.04688 31.0449 5.8503 32.7182 10.5927C30.7021 11.1593 28.6122 11.9105 26.5001 12.8289C24.388 11.9105 22.298 11.1594 20.2819 10.5927C21.9553 5.8503 24.2963 3.04688 26.5001 3.04688ZM6.84967 14.4352C7.61464 13.1103 9.58221 12.4035 12.3681 12.4035C13.581 12.4035 14.9505 12.539 16.4419 12.8143C15.9338 14.8191 15.5454 16.9753 15.2871 19.2316C13.4165 20.5866 11.6971 22.0085 10.1697 23.4616C9.89675 23.1388 9.63461 22.8158 9.38568 22.493C6.77319 19.1056 5.84887 16.1686 6.84967 14.4352ZM11.913 39.42C9.12792 39.4198 7.15943 38.713 6.39457 37.3883C5.39377 35.6548 6.31809 32.7178 8.93048 29.3304C9.30271 28.8477 9.70276 28.3645 10.1282 27.8821C11.6383 29.3667 13.3524 30.823 15.2264 32.2136C15.4731 34.5765 15.8605 36.8368 16.3784 38.9347C14.7342 39.2608 13.2316 39.4201 11.913 39.42ZM26.5001 48.9531C24.2535 48.9531 21.8647 46.0393 20.1856 41.1287C22.2358 40.5327 24.3586 39.7479 26.5001 38.794C28.6415 39.7479 30.7644 40.5327 32.8145 41.1287C31.1355 46.0393 28.7466 48.9531 26.5001 48.9531ZM46.6056 37.3883C45.4787 39.3403 41.7399 39.9498 36.6217 38.9347C37.1397 36.8368 37.5269 34.5765 37.7736 32.2136C39.6478 30.823 41.3618 29.3667 42.8719 27.8821C43.2973 28.3645 43.6974 28.8478 44.0696 29.3304C46.6822 32.7178 47.6065 35.6548 46.6056 37.3883Z" fill="white"/>
<path d="M26.5001 30.7073C29.1 30.7073 31.2076 28.5997 31.2076 25.9999C31.2076 23.4001 29.1 21.2925 26.5001 21.2925C23.9003 21.2925 21.7927 23.4001 21.7927 25.9999C21.7927 28.5997 23.9003 30.7073 26.5001 30.7073Z" fill="white"/>
</svg>
