<svg width="53" height="52" viewBox="0 0 53 52" fill="none" xmlns="http://www.w3.org/2000/svg">
<g clip-path="url(#clip0_203_255)">
<path d="M21.9117 30.5881H31.0882V21.4116H21.9117V30.5881ZM24.9706 24.4704H28.0294V27.5293H24.9706V24.4704Z" fill="white"/>
<path d="M44.6019 10.061C48.1376 11.9801 52.5 9.41445 52.5 5.35294C52.5 2.40138 50.0986 0 47.1471 0C43.0908 0 40.517 4.35699 42.439 7.89809C38.7978 11.5393 42.2744 8.06275 38.3444 11.9927C32.2786 6.85564 23.8542 6.33737 17.3477 10.0965L13.8164 6.56515C15.2684 3.53682 13.0492 0 9.67647 0C7.14652 0 5.08824 2.05828 5.08824 4.58824C5.08824 7.96171 8.62607 10.1796 11.6535 8.72805L14.798 11.8725C6.91619 18.4125 5.9026 30.0627 12.4929 37.8444C11.2331 39.1041 9.57981 40.7574 8.39819 41.939C4.86249 40.0199 0.5 42.5857 0.5 46.6471C0.5 49.5987 2.90138 52 5.85294 52C9.90935 52 12.483 47.643 10.5611 44.1019C11.7427 42.9202 13.3959 41.2671 14.6557 40.0073C20.7214 45.1443 29.1457 45.6627 35.6524 41.9035L39.1837 45.4348C37.7316 48.4633 39.9508 52 43.3235 52C45.8536 52 47.9118 49.9418 47.9118 47.4118C47.9118 44.0384 44.374 41.8203 41.3466 43.2719L38.2021 40.1274C46.0839 33.5874 47.0975 21.9373 40.5073 14.1556C44.4476 10.2152 40.9237 13.7391 44.6019 10.061ZM34.1471 33.6471H31.0882V36.7059H28.0294V33.6471H24.9706V36.7059H21.9118V33.6471H18.8529V30.5882H15.7941V27.5294H18.8529V24.4706H15.7941V21.4118H18.8529V18.3529H21.9118V15.2941H24.9706V18.3529H28.0294V15.2941H31.0882V18.3529H34.1471V21.4118H37.2059V24.4706H34.1471V27.5294H37.2059V30.5882H34.1471V33.6471Z" fill="white"/>
</g>
<defs>
<clipPath id="clip0_203_255">
<rect width="52" height="52" fill="white" transform="translate(0.5)"/>
</clipPath>
</defs>
</svg>
