<svg width="27" height="26" viewBox="0 0 27 26" fill="none" xmlns="http://www.w3.org/2000/svg">
<g clip-path="url(#clip0_1_10970)">
<path d="M13.4609 0C6.29245 0 0.460938 5.83151 0.460938 13C0.460938 20.1685 6.29245 26 13.4609 26C20.6294 26 26.4609 20.1685 26.4609 13C26.4609 5.83151 20.6294 0 13.4609 0ZM13.4609 20.5833C12.8629 20.5833 12.3777 20.0981 12.3777 19.5C12.3777 18.9019 12.8629 18.4167 13.4609 18.4167C14.059 18.4167 14.5442 18.9019 14.5442 19.5C14.5442 20.0981 14.059 20.5833 13.4609 20.5833ZM15.1758 13.6955C14.7924 13.872 14.5442 14.2588 14.5442 14.6803V15.1667C14.5442 15.7646 14.06 16.25 13.4609 16.25C12.8619 16.25 12.3777 15.7646 12.3777 15.1667V14.6803C12.3777 13.416 13.1207 12.2569 14.2681 11.7271C15.372 11.2191 16.1692 9.87021 16.1692 9.20827C16.1692 7.71558 14.9548 6.5 13.4609 6.5C11.9671 6.5 10.7527 7.71558 10.7527 9.20827C10.7527 9.80634 10.2683 10.2917 9.6692 10.2917C9.07014 10.2917 8.58594 9.80634 8.58594 9.20827C8.58594 6.52063 10.7731 4.33327 13.4609 4.33327C16.1488 4.33327 18.3359 6.52063 18.3359 9.20827C18.3359 10.672 17.0662 12.8235 15.1758 13.6955Z" fill="#7B72FE"/>
</g>
<defs>
<clipPath id="clip0_1_10970">
<rect width="26" height="26" fill="white" transform="translate(0.460938)"/>
</clipPath>
</defs>
</svg>
